<mxfile host="app.diagrams.net" modified="2022-05-11T09:18:36.800Z" agent="5.0 (Windows NT 6.1; Win64; x64) AppleWebKit/537.36 (KHTML, like Gecko) Chrome/101.0.4951.54 Safari/537.36" etag="bUYY88s_ZXI4lp5cimgM" version="17.5.0" type="github">
  <diagram id="1Huut0r_RO8K0pzw-l-r" name="Page-1">
    <mxGraphModel dx="1247" dy="677" grid="1" gridSize="10" guides="1" tooltips="1" connect="1" arrows="1" fold="1" page="1" pageScale="1" pageWidth="850" pageHeight="1100" math="0" shadow="0">
      <root>
        <mxCell id="0" />
        <mxCell id="1" parent="0" />
        <mxCell id="PrErrTt0o9ltIrJQnfnP-1" value="" style="endArrow=none;html=1;rounded=0;" edge="1" parent="1">
          <mxGeometry width="50" height="50" relative="1" as="geometry">
            <mxPoint x="60" y="120" as="sourcePoint" />
            <mxPoint x="540" y="120" as="targetPoint" />
          </mxGeometry>
        </mxCell>
        <mxCell id="PrErrTt0o9ltIrJQnfnP-2" value="" style="endArrow=none;html=1;rounded=0;" edge="1" parent="1">
          <mxGeometry width="50" height="50" relative="1" as="geometry">
            <mxPoint x="60" y="130" as="sourcePoint" />
            <mxPoint x="60" y="110" as="targetPoint" />
          </mxGeometry>
        </mxCell>
        <mxCell id="PrErrTt0o9ltIrJQnfnP-7" value="" style="endArrow=none;html=1;rounded=0;" edge="1" parent="1">
          <mxGeometry width="50" height="50" relative="1" as="geometry">
            <mxPoint x="540" y="130" as="sourcePoint" />
            <mxPoint x="540" y="110" as="targetPoint" />
          </mxGeometry>
        </mxCell>
        <mxCell id="PrErrTt0o9ltIrJQnfnP-8" value="Ночь" style="rounded=0;whiteSpace=wrap;html=1;" vertex="1" parent="1">
          <mxGeometry x="60" y="100" width="120" height="20" as="geometry" />
        </mxCell>
        <mxCell id="PrErrTt0o9ltIrJQnfnP-9" value="ПЧПН 1" style="rounded=0;whiteSpace=wrap;html=1;" vertex="1" parent="1">
          <mxGeometry x="200" y="100" width="100" height="20" as="geometry" />
        </mxCell>
        <mxCell id="PrErrTt0o9ltIrJQnfnP-10" value="&lt;font style=&quot;font-size: 10px&quot;&gt;Интервал&lt;/font&gt;" style="rounded=0;whiteSpace=wrap;html=1;" vertex="1" parent="1">
          <mxGeometry x="300" y="100" width="60" height="20" as="geometry" />
        </mxCell>
        <mxCell id="PrErrTt0o9ltIrJQnfnP-11" value="&lt;font style=&quot;font-size: 10px&quot;&gt;Вечер&lt;/font&gt;" style="rounded=0;whiteSpace=wrap;html=1;" vertex="1" parent="1">
          <mxGeometry x="500" y="100" width="40" height="20" as="geometry" />
        </mxCell>
        <mxCell id="PrErrTt0o9ltIrJQnfnP-12" value="ПЧПН 2" style="rounded=0;whiteSpace=wrap;html=1;" vertex="1" parent="1">
          <mxGeometry x="360" y="100" width="120" height="20" as="geometry" />
        </mxCell>
        <mxCell id="PrErrTt0o9ltIrJQnfnP-14" value="" style="endArrow=none;html=1;rounded=0;entryX=1;entryY=0;entryDx=0;entryDy=0;" edge="1" parent="1" target="PrErrTt0o9ltIrJQnfnP-8">
          <mxGeometry width="50" height="50" relative="1" as="geometry">
            <mxPoint x="180" y="130" as="sourcePoint" />
            <mxPoint x="210" y="120" as="targetPoint" />
          </mxGeometry>
        </mxCell>
        <mxCell id="PrErrTt0o9ltIrJQnfnP-16" value="" style="endArrow=none;html=1;rounded=0;entryX=0;entryY=0;entryDx=0;entryDy=0;" edge="1" parent="1" target="PrErrTt0o9ltIrJQnfnP-11">
          <mxGeometry width="50" height="50" relative="1" as="geometry">
            <mxPoint x="500" y="130" as="sourcePoint" />
            <mxPoint x="530" y="120" as="targetPoint" />
          </mxGeometry>
        </mxCell>
        <mxCell id="PrErrTt0o9ltIrJQnfnP-17" value="0 ч" style="text;html=1;strokeColor=none;fillColor=none;align=center;verticalAlign=middle;whiteSpace=wrap;rounded=0;" vertex="1" parent="1">
          <mxGeometry x="50" y="130" width="20" height="20" as="geometry" />
        </mxCell>
        <mxCell id="PrErrTt0o9ltIrJQnfnP-18" value="6 ч" style="text;html=1;strokeColor=none;fillColor=none;align=center;verticalAlign=middle;whiteSpace=wrap;rounded=0;" vertex="1" parent="1">
          <mxGeometry x="170" y="130" width="20" height="20" as="geometry" />
        </mxCell>
        <mxCell id="PrErrTt0o9ltIrJQnfnP-19" value="22 ч" style="text;html=1;strokeColor=none;fillColor=none;align=center;verticalAlign=middle;whiteSpace=wrap;rounded=0;" vertex="1" parent="1">
          <mxGeometry x="480" y="130" width="40" height="20" as="geometry" />
        </mxCell>
        <mxCell id="PrErrTt0o9ltIrJQnfnP-20" value="24 ч" style="text;html=1;strokeColor=none;fillColor=none;align=center;verticalAlign=middle;whiteSpace=wrap;rounded=0;" vertex="1" parent="1">
          <mxGeometry x="520" y="130" width="40" height="20" as="geometry" />
        </mxCell>
        <mxCell id="PrErrTt0o9ltIrJQnfnP-24" value="" style="verticalLabelPosition=bottom;shadow=0;dashed=0;align=center;html=1;verticalAlign=top;strokeWidth=1;shape=mxgraph.mockup.markup.curlyBrace;strokeColor=#999999;fontSize=10;" vertex="1" parent="1">
          <mxGeometry x="60" y="70" width="120" height="20" as="geometry" />
        </mxCell>
        <mxCell id="PrErrTt0o9ltIrJQnfnP-25" value="" style="verticalLabelPosition=bottom;shadow=0;dashed=0;align=center;html=1;verticalAlign=top;strokeWidth=1;shape=mxgraph.mockup.markup.curlyBrace;strokeColor=#999999;fontSize=10;" vertex="1" parent="1">
          <mxGeometry x="180" y="70" width="320" height="20" as="geometry" />
        </mxCell>
        <mxCell id="PrErrTt0o9ltIrJQnfnP-26" value="" style="verticalLabelPosition=bottom;shadow=0;dashed=0;align=center;html=1;verticalAlign=top;strokeWidth=1;shape=mxgraph.mockup.markup.curlyBrace;strokeColor=#999999;fontSize=10;" vertex="1" parent="1">
          <mxGeometry x="500" y="70" width="40" height="20" as="geometry" />
        </mxCell>
        <mxCell id="PrErrTt0o9ltIrJQnfnP-27" value="" style="verticalLabelPosition=bottom;shadow=0;dashed=0;align=center;html=1;verticalAlign=top;strokeWidth=1;shape=mxgraph.mockup.markup.curlyBrace;strokeColor=#999999;fontSize=10;rotation=-180;" vertex="1" parent="1">
          <mxGeometry x="200" y="130" width="100" height="20" as="geometry" />
        </mxCell>
        <mxCell id="PrErrTt0o9ltIrJQnfnP-28" value="" style="verticalLabelPosition=bottom;shadow=0;dashed=0;align=center;html=1;verticalAlign=top;strokeWidth=1;shape=mxgraph.mockup.markup.curlyBrace;strokeColor=#999999;fontSize=10;rotation=-180;" vertex="1" parent="1">
          <mxGeometry x="300" y="130" width="60" height="20" as="geometry" />
        </mxCell>
        <mxCell id="PrErrTt0o9ltIrJQnfnP-29" value="" style="verticalLabelPosition=bottom;shadow=0;dashed=0;align=center;html=1;verticalAlign=top;strokeWidth=1;shape=mxgraph.mockup.markup.curlyBrace;strokeColor=#999999;fontSize=10;rotation=-180;" vertex="1" parent="1">
          <mxGeometry x="360" y="130" width="120" height="20" as="geometry" />
        </mxCell>
        <mxCell id="PrErrTt0o9ltIrJQnfnP-30" value="Заряд аккумулятора" style="text;html=1;strokeColor=none;fillColor=none;align=center;verticalAlign=middle;whiteSpace=wrap;rounded=0;fontSize=10;" vertex="1" parent="1">
          <mxGeometry x="90" y="40" width="60" height="30" as="geometry" />
        </mxCell>
        <mxCell id="PrErrTt0o9ltIrJQnfnP-31" value="Заряд в случае PVS_p &amp;gt; Load_p&amp;nbsp;" style="text;html=1;strokeColor=none;fillColor=none;align=center;verticalAlign=middle;whiteSpace=wrap;rounded=0;fontSize=10;" vertex="1" parent="1">
          <mxGeometry x="240" y="40" width="200" height="30" as="geometry" />
        </mxCell>
        <mxCell id="PrErrTt0o9ltIrJQnfnP-32" value="Разряд СНЭЭ" style="text;html=1;strokeColor=none;fillColor=none;align=center;verticalAlign=middle;whiteSpace=wrap;rounded=0;fontSize=10;" vertex="1" parent="1">
          <mxGeometry x="490" y="40" width="60" height="30" as="geometry" />
        </mxCell>
        <mxCell id="PrErrTt0o9ltIrJQnfnP-33" value="Разряд в часы возможного ЧПН" style="text;html=1;strokeColor=none;fillColor=none;align=center;verticalAlign=middle;whiteSpace=wrap;rounded=0;fontSize=10;" vertex="1" parent="1">
          <mxGeometry x="205" y="160" width="90" height="30" as="geometry" />
        </mxCell>
        <mxCell id="PrErrTt0o9ltIrJQnfnP-34" value="Заряд СНЭЭ для ЧПН в интервал ПЧПН 2" style="text;html=1;strokeColor=none;fillColor=none;align=center;verticalAlign=middle;whiteSpace=wrap;rounded=0;fontSize=10;" vertex="1" parent="1">
          <mxGeometry x="295" y="170" width="70" height="30" as="geometry" />
        </mxCell>
        <mxCell id="PrErrTt0o9ltIrJQnfnP-35" value="Разряд в часы возможного ЧПН" style="text;html=1;strokeColor=none;fillColor=none;align=center;verticalAlign=middle;whiteSpace=wrap;rounded=0;fontSize=10;" vertex="1" parent="1">
          <mxGeometry x="375" y="160" width="90" height="30" as="geometry" />
        </mxCell>
        <mxCell id="PrErrTt0o9ltIrJQnfnP-36" value="Начало" style="rounded=1;whiteSpace=wrap;html=1;fontFamily=Times New Roman;" vertex="1" parent="1">
          <mxGeometry x="110" y="920" width="120" height="30" as="geometry" />
        </mxCell>
        <mxCell id="PrErrTt0o9ltIrJQnfnP-37" value="&lt;h1&gt;Исходные данные&lt;/h1&gt;&lt;p style=&quot;font-size: 16px&quot;&gt;&lt;/p&gt;&lt;ul style=&quot;font-size: 12px&quot;&gt;&lt;li&gt;Прогнозные значения нагрузки { Load_p_forec }&lt;/li&gt;&lt;li&gt;Прогнозные значения генерации солнца { PVS_p_forec }&lt;/li&gt;&lt;li&gt;Прогнозные значения ЧПН { CHPN_forec }&lt;/li&gt;&lt;li&gt;Данные c интервалами ПЧПН { PCHPN }&lt;/li&gt;&lt;/ul&gt;&lt;p&gt;&lt;/p&gt;" style="text;html=1;strokeColor=none;fillColor=none;spacing=5;spacingTop=-20;whiteSpace=wrap;overflow=hidden;rounded=0;fontSize=10;" vertex="1" parent="1">
          <mxGeometry x="60" y="220" width="455" height="120" as="geometry" />
        </mxCell>
        <mxCell id="PrErrTt0o9ltIrJQnfnP-38" value="&lt;h1&gt;Необходимая телеметрия&lt;/h1&gt;&lt;p style=&quot;font-size: 16px&quot;&gt;&lt;/p&gt;&lt;ul style=&quot;font-size: 12px&quot;&gt;&lt;li&gt;Активная мощность сети { Grid_p }&lt;/li&gt;&lt;li&gt;Активная мощность выработки СЭС { PVS_p }&lt;/li&gt;&lt;li&gt;Текущая уставка максимальной мощности СЭС { PVS_p_max }&lt;/li&gt;&lt;li&gt;Активная мощность СНЭЭ { ESS_p } (отрицательная - заряд, положительная - разряд)&lt;/li&gt;&lt;li&gt;Текущая энергоёмкость СНЭЭ { ESS_e }&lt;/li&gt;&lt;/ul&gt;&lt;p&gt;&lt;/p&gt;" style="text;html=1;strokeColor=none;fillColor=none;spacing=5;spacingTop=-20;whiteSpace=wrap;overflow=hidden;rounded=0;fontSize=10;" vertex="1" parent="1">
          <mxGeometry x="60" y="340" width="455" height="130" as="geometry" />
        </mxCell>
        <mxCell id="PrErrTt0o9ltIrJQnfnP-39" value="&lt;h1&gt;Дополнительные данные, уставки&lt;/h1&gt;&lt;p style=&quot;font-size: 16px&quot;&gt;&lt;/p&gt;&lt;ul style=&quot;font-size: 12px&quot;&gt;&lt;li&gt;Минимальная энергоёмкость СНЭЭ { ESS_e_min }&lt;/li&gt;&lt;li&gt;Максимальная энергоёмкость СНЭЭ { ESS_e_max }&lt;/li&gt;&lt;li&gt;&lt;br&gt;&lt;/li&gt;&lt;/ul&gt;&lt;p&gt;&lt;/p&gt;" style="text;html=1;strokeColor=none;fillColor=none;spacing=5;spacingTop=-20;whiteSpace=wrap;overflow=hidden;rounded=0;fontSize=10;" vertex="1" parent="1">
          <mxGeometry x="60" y="510" width="455" height="130" as="geometry" />
        </mxCell>
      </root>
    </mxGraphModel>
  </diagram>
</mxfile>
